<svg width="245" height="67" viewBox="0 0 245 67" fill="none" xmlns="http://www.w3.org/2000/svg">
<path d="M17.3457 12.3672L17.3457 12.3673C16.4463 13.907 15.317 15.8276 14.8355 16.6359L14.8355 16.636C14.6896 16.8809 14.5523 17.1139 14.4323 17.3198C15.1947 17.76 17.2605 18.9675 19.9331 20.5354C20.531 20.8862 21.883 21.6776 22.9375 22.2941C23.9925 22.911 25.3699 23.7193 25.9988 24.0908C26.6257 24.4612 27.3383 24.8748 27.5825 25.0107C27.6424 25.044 27.7063 25.0801 27.7711 25.1174C28.0915 24.5329 28.9072 23.0822 29.7252 21.6421L29.7253 21.642C30.6611 19.9947 31.6222 18.2963 31.862 17.8661L31.8621 17.866C32.1061 17.4284 33.1367 15.6008 34.1517 13.8062C35.6703 11.1207 36.4833 9.6799 36.9173 8.89003C37.0577 8.63453 37.1536 8.4557 37.219 8.3296C37.1633 8.21498 37.0895 8.07373 37.0003 7.91296C36.7687 7.49587 36.4622 6.99923 36.1721 6.58515L36.172 6.58511C34.2675 3.86704 31.6624 1.86968 29.5952 1.34058L17.3457 12.3672ZM17.3457 12.3672C18.2444 10.8286 19.4455 8.77736 20.0145 7.80946C20.5842 6.84046 21.2393 5.71566 21.4703 5.30985C22.3584 3.74972 23.1935 2.92888 24.6763 2.13221L24.2038 1.25271L24.6763 2.13221C25.515 1.68158 26.6555 1.2942 27.3809 1.19285L17.3457 12.3672ZM18.1979 26.4664L17.9793 26.4499L17.9792 26.4499C17.3604 26.403 12.8764 26.3598 8.48594 26.3415C6.80342 26.3345 5.14844 26.3312 3.75404 26.3325C4.41856 26.7014 4.99134 27.0236 5.45894 27.2915C5.91435 27.5524 6.27784 27.7662 6.53122 27.9232C6.65546 28.0002 6.76762 28.0725 6.85474 28.1343C6.89502 28.1629 6.95305 28.2055 7.00943 28.2556C7.03515 28.2785 7.08798 28.3269 7.14243 28.3948C7.16975 28.4289 7.21521 28.4896 7.25763 28.5728C7.29515 28.6464 7.36823 28.8101 7.36823 29.032C7.36823 29.2305 7.30511 29.3932 7.29998 29.4064L7.29967 29.4073C7.28087 29.4593 7.25995 29.5075 7.24334 29.544C7.20896 29.6197 7.16585 29.7049 7.12101 29.7897C7.02977 29.9624 6.90864 30.1761 6.77826 30.393M18.1979 26.4664L2.55405 39.1157C2.55089 38.4843 2.60688 38.0606 2.79699 37.5344C3.00262 36.9651 3.37304 36.2536 4.06565 35.0634L4.06569 35.0634C4.36526 34.5485 4.99968 33.451 5.47581 32.6237C5.95074 31.7986 6.53732 30.7941 6.77826 30.393M18.1979 26.4664C18.3564 26.7472 18.8203 27.5591 19.2577 28.3214C19.7161 29.1204 20.2149 29.9991 20.3669 30.2752L21.2429 29.793L20.3669 30.2752C20.5283 30.5683 20.9279 31.2742 21.2556 31.8453C21.5813 32.4129 22.3499 33.7635 22.9633 34.8462C23.5772 35.9297 24.3606 37.3071 24.7045 37.9076C24.8512 38.1639 24.9926 38.4113 25.128 38.649C24.3254 38.1184 23.5896 37.6376 23.0378 37.2821C22.7448 37.0933 22.5003 36.9378 22.3242 36.8284C22.2372 36.7743 22.1606 36.7276 22.1009 36.6927C22.0725 36.6762 22.0375 36.6562 22.0025 36.638C21.9865 36.6297 21.9557 36.6139 21.9181 36.5978C21.8999 36.59 21.8653 36.5757 21.8209 36.5616L21.8188 36.561C21.7925 36.5526 21.6724 36.5143 21.5157 36.5143C21.217 36.5143 21.0101 36.6491 20.972 36.6739L20.969 36.6758C20.9005 36.72 20.8517 36.7634 20.8292 36.7839C20.7811 36.8279 20.7446 36.8694 20.7273 36.8895C20.6877 36.9353 20.6488 36.9858 20.6169 37.0283C20.5496 37.1182 20.4633 37.24 20.3648 37.3824C20.1656 37.6702 19.892 38.0778 19.5693 38.5654C18.9226 39.5422 18.0665 40.8588 17.1884 42.2236C15.444 44.9347 13.574 47.8961 13.1089 48.7363L13.9837 49.2206L13.1089 48.7363C11.8816 50.953 11.1497 52.8083 10.8348 54.6687M18.1979 26.4664L10.8348 54.6687M6.77826 30.393L5.92111 29.8779L6.77836 30.3928C6.77833 30.3929 6.7783 30.393 6.77826 30.393ZM10.8348 54.6687C10.5486 54.1732 10.1569 53.4942 9.79876 52.8724L9.79875 52.8724C7.06531 48.127 5.35681 45.1506 4.30115 43.286C3.22555 41.3863 2.86276 40.7 2.7703 40.4746C2.65955 40.2045 2.61946 40.0719 2.59575 39.9307C2.56877 39.77 2.55627 39.5573 2.55405 39.1157L10.8348 54.6687ZM36.0259 1.00038L42.3839 1.00004C47.6224 0.999725 50.203 1.00015 51.6257 1.06925C52.335 1.10369 52.6959 1.15323 52.9292 1.20982C53.1403 1.26105 53.2715 1.32223 53.5579 1.46233C53.9427 1.65062 54.5724 2.20012 55.1006 2.91957C55.4823 3.43935 56.5932 5.30013 58.3521 8.39295L59.2214 7.89859L58.3521 8.39295C58.6755 8.96149 58.9799 9.48159 59.2109 9.86263C59.3256 10.0517 59.4266 10.2141 59.5048 10.333C59.5423 10.3902 59.5837 10.4513 59.6232 10.504C59.6407 10.5273 59.6745 10.5714 59.7178 10.6178C59.7373 10.6387 59.7827 10.6861 59.8475 10.7358C59.88 10.7608 59.9386 10.8029 60.0187 10.8423C60.0891 10.8769 60.2477 10.9455 60.4622 10.9455C60.6311 10.9455 60.7641 10.9004 60.7846 10.8935L60.7867 10.8928C60.8308 10.8783 60.8672 10.8633 60.8888 10.854C60.9339 10.8347 60.9776 10.8133 61.012 10.7959C61.084 10.7595 61.1705 10.7125 61.2617 10.6613C61.4467 10.5575 61.6842 10.418 61.9318 10.2669C62.4128 9.97342 62.9345 9.66009 63.0926 9.56918C63.2722 9.46589 63.6519 9.24083 63.9392 9.0677L64.0558 8.99746C63.7856 9.4568 63.477 9.98061 63.125 10.5778C62.369 11.8605 61.463 13.4005 61.1116 14.0002C60.7617 14.5974 59.9936 15.9023 59.405 16.8994C58.8154 17.8984 57.9389 19.3926 57.4565 20.2211C57.2177 20.6312 56.9925 21.0121 56.8224 21.2946C56.813 21.3102 56.8038 21.3255 56.7947 21.3404C56.773 21.341 56.7504 21.3415 56.7272 21.342C56.3505 21.3503 55.8093 21.357 55.1472 21.3622C53.8245 21.3725 52.0349 21.3763 50.1495 21.3741C47.511 21.371 44.699 21.3561 42.7212 21.3307C43.6015 20.8942 44.3991 20.4925 44.9895 20.1896C45.3036 20.0284 45.5634 19.8929 45.7468 19.7942C45.837 19.7457 45.9173 19.7015 45.9787 19.6657C46.0069 19.6492 46.0467 19.6255 46.0858 19.5991C46.1019 19.5883 46.1432 19.5602 46.1895 19.5208C46.21 19.5032 46.2608 19.4589 46.315 19.3933C46.3423 19.3602 46.3888 19.2998 46.4323 19.2159C46.4715 19.1403 46.5449 18.9765 46.5449 18.7546C46.5449 18.6228 46.5175 18.52 46.5122 18.5003L46.5117 18.4984C46.5023 18.4625 46.4928 18.4343 46.4878 18.4199C46.4773 18.3898 46.4672 18.3652 46.4621 18.3529C46.4507 18.3256 46.4385 18.2986 46.4288 18.2775C46.4082 18.2328 46.3808 18.1756 46.3493 18.111C46.2854 17.9799 46.1943 17.7967 46.0826 17.5741C45.8586 17.128 45.5462 16.5126 45.1904 15.8163C44.4786 14.4235 43.5902 12.7004 42.883 11.3478C42.4814 10.5797 41.8034 9.2752 41.377 8.45003L41.377 8.44994C39.5266 4.87001 37.9851 2.67155 36.0259 1.00038ZM37.3139 8.54443C37.3203 8.56315 37.3181 8.56079 37.313 8.5421C37.3133 8.54293 37.3136 8.5437 37.3139 8.54443ZM37.3282 8.10628C37.3313 8.09721 37.3334 8.09225 37.3336 8.09207C37.3339 8.09188 37.3323 8.09642 37.3282 8.10628ZM28.3311 25.4635C28.3462 25.4702 28.3556 25.4753 28.3587 25.477C28.3618 25.4787 28.3629 25.4794 28.3617 25.4786C28.3597 25.4773 28.3509 25.4719 28.3335 25.46C28.3335 25.4599 28.3334 25.4599 28.3333 25.4598L28.3308 25.4634L28.3311 25.4635ZM24.7313 39.5857L25.2313 38.8305C25.2313 38.8305 25.2313 38.8305 25.2313 38.8305L24.7313 39.5857ZM27.1895 40.9129L27.1884 40.914L27.1895 40.9129ZM15.2304 52.5351L14.2957 52.1796L15.2304 52.5351C15.388 52.1206 15.6761 51.5079 15.9733 50.941C16.1202 50.6609 16.2633 50.4032 16.3865 50.1975C16.4481 50.0945 16.5018 50.0095 16.5461 49.9436C16.5642 49.9168 16.5795 49.8949 16.5921 49.8775L22.9961 49.813C26.7671 49.7749 31.4249 49.7357 33.3462 49.7257L35.839 49.7128V53.3545C35.839 55.9054 35.808 59.8246 35.7702 62.0594L36.77 62.0763L35.7702 62.0594L35.718 65.1421L28.7209 65.079C26.5266 65.0592 24.4622 65.0302 22.9046 64.9995C22.1255 64.9841 21.4756 64.9683 21.0007 64.9531C20.7628 64.9455 20.5724 64.9381 20.4332 64.9312C20.336 64.9264 20.2821 64.9225 20.2586 64.9209C20.2427 64.9197 20.2407 64.9196 20.2485 64.9208C19.1703 64.7525 17.9896 64.2328 16.9551 63.4935C15.9167 62.7515 15.1054 61.8457 14.694 60.9761C14.4413 60.442 14.3238 60.1165 14.2554 59.7288C14.1821 59.3127 14.158 58.7846 14.1596 57.8297C14.1613 56.7687 14.2125 56.0379 14.3622 55.2937C14.5136 54.5413 14.7731 53.7373 15.2304 52.5351ZM27.381 1.19283C28.0122 1.10473 28.8804 1.15767 29.5952 1.34057L27.381 1.19283Z" fill="#388249" stroke="#F5F8FA" stroke-width="2"/>
<path d="M53.72 57.6C52.28 57.6 50.88 57.4667 49.52 57.2C48.1867 56.9333 46.9733 56.52 45.88 55.96C45.3733 55.6933 45.0267 55.3733 44.84 55C44.68 54.6267 44.6267 54.24 44.68 53.84C44.76 53.4667 44.92 53.1333 45.16 52.84C45.4267 52.5467 45.7467 52.3467 46.12 52.24C46.4933 52.1333 46.88 52.1867 47.28 52.4C48.4533 52.9867 49.56 53.36 50.6 53.52C51.6667 53.7067 52.5733 53.8 53.32 53.8C55.1067 53.8 56.44 53.36 57.32 52.48C58.2267 51.6267 58.68 50.3467 58.68 48.64V45.04H59.04C58.64 46.4 57.8 47.4933 56.52 48.32C55.2667 49.12 53.84 49.52 52.24 49.52C50.48 49.52 48.9467 49.12 47.64 48.32C46.3333 47.4933 45.32 46.3467 44.6 44.88C43.88 43.4133 43.52 41.7067 43.52 39.76C43.52 38.2933 43.72 36.9733 44.12 35.8C44.5467 34.6 45.1333 33.5733 45.88 32.72C46.6533 31.8667 47.5733 31.2133 48.64 30.76C49.7333 30.28 50.9333 30.04 52.24 30.04C53.8933 30.04 55.3333 30.4533 56.56 31.28C57.8133 32.08 58.6267 33.1467 59 34.48L58.6 35.48V32.64C58.6 31.8133 58.8133 31.1867 59.24 30.76C59.6933 30.3333 60.3067 30.12 61.08 30.12C61.88 30.12 62.4933 30.3333 62.92 30.76C63.3467 31.1867 63.56 31.8133 63.56 32.64V48.04C63.56 51.2133 62.72 53.6 61.04 55.2C59.36 56.8 56.92 57.6 53.72 57.6ZM53.6 45.72C54.64 45.72 55.5333 45.48 56.28 45C57.0267 44.52 57.6 43.84 58 42.96C58.4267 42.0533 58.64 40.9867 58.64 39.76C58.64 37.92 58.1867 36.48 57.28 35.44C56.3733 34.3733 55.1467 33.84 53.6 33.84C52.56 33.84 51.6667 34.08 50.92 34.56C50.1733 35.04 49.5867 35.72 49.16 36.6C48.76 37.48 48.56 38.5333 48.56 39.76C48.56 41.6 49.0133 43.0533 49.92 44.12C50.8267 45.1867 52.0533 45.72 53.6 45.72ZM78.3806 50.4C76.1673 50.4 74.2606 49.9867 72.6606 49.16C71.0606 48.3333 69.8206 47.16 68.9406 45.64C68.0873 44.12 67.6606 42.32 67.6606 40.24C67.6606 38.2133 68.074 36.44 68.9006 34.92C69.754 33.4 70.914 32.2133 72.3806 31.36C73.874 30.48 75.5673 30.04 77.4606 30.04C78.8473 30.04 80.0873 30.2667 81.1806 30.72C82.3006 31.1733 83.2473 31.8267 84.0206 32.68C84.8206 33.5333 85.4206 34.5733 85.8206 35.8C86.2473 37 86.4606 38.36 86.4606 39.88C86.4606 40.36 86.2873 40.7333 85.9406 41C85.6206 41.24 85.154 41.36 84.5406 41.36H71.7006V38.48H82.9406L82.3006 39.08C82.3006 37.8533 82.114 36.8267 81.7406 36C81.394 35.1733 80.874 34.5467 80.1806 34.12C79.514 33.6667 78.674 33.44 77.6606 33.44C76.5406 33.44 75.5806 33.7067 74.7806 34.24C74.0073 34.7467 73.4073 35.48 72.9806 36.44C72.5806 37.3733 72.3806 38.4933 72.3806 39.8V40.08C72.3806 42.2667 72.8873 43.9067 73.9006 45C74.9406 46.0667 76.4606 46.6 78.4606 46.6C79.154 46.6 79.9273 46.52 80.7806 46.36C81.6606 46.1733 82.4873 45.8667 83.2606 45.44C83.8206 45.12 84.314 44.9867 84.7406 45.04C85.1673 45.0667 85.5006 45.2133 85.7406 45.48C86.0073 45.7467 86.1673 46.08 86.2206 46.48C86.274 46.8533 86.194 47.24 85.9806 47.64C85.794 48.04 85.4606 48.3867 84.9806 48.68C84.0473 49.2667 82.9673 49.7067 81.7406 50C80.5406 50.2667 79.4206 50.4 78.3806 50.4ZM99.3022 50.4C97.5689 50.4 96.1155 50.1067 94.9422 49.52C93.7955 48.9333 92.9422 48.08 92.3822 46.96C91.8222 45.8133 91.5422 44.4 91.5422 42.72V34.2H89.4622C88.8222 34.2 88.3289 34.04 87.9822 33.72C87.6355 33.3733 87.4622 32.9067 87.4622 32.32C87.4622 31.7067 87.6355 31.24 87.9822 30.92C88.3289 30.6 88.8222 30.44 89.4622 30.44H91.5422V26.8C91.5422 25.9733 91.7555 25.3467 92.1822 24.92C92.6355 24.4933 93.2622 24.28 94.0622 24.28C94.8622 24.28 95.4755 24.4933 95.9022 24.92C96.3289 25.3467 96.5422 25.9733 96.5422 26.8V30.44H100.782C101.422 30.44 101.916 30.6 102.262 30.92C102.609 31.24 102.782 31.7067 102.782 32.32C102.782 32.9067 102.609 33.3733 102.262 33.72C101.916 34.04 101.422 34.2 100.782 34.2H96.5422V42.44C96.5422 43.72 96.8222 44.68 97.3822 45.32C97.9422 45.96 98.8489 46.28 100.102 46.28C100.556 46.28 100.956 46.24 101.302 46.16C101.649 46.08 101.956 46.0267 102.222 46C102.542 45.9733 102.809 46.08 103.022 46.32C103.236 46.5333 103.342 46.9867 103.342 47.68C103.342 48.2133 103.249 48.6933 103.062 49.12C102.902 49.52 102.596 49.8 102.142 49.96C101.796 50.0667 101.342 50.16 100.782 50.24C100.222 50.3467 99.7289 50.4 99.3022 50.4ZM108.734 50.32C107.907 50.32 107.267 50.0933 106.814 49.64C106.387 49.16 106.174 48.5067 106.174 47.68V24.4C106.174 23.5467 106.4 22.9067 106.854 22.48C107.307 22.0267 107.947 21.8 108.774 21.8H118.414C121.507 21.8 123.894 22.5467 125.574 24.04C127.254 25.5067 128.094 27.5733 128.094 30.24C128.094 31.9733 127.707 33.4667 126.934 34.72C126.187 35.9733 125.094 36.9333 123.654 37.6C122.214 38.2667 120.467 38.6 118.414 38.6L118.774 38H120.094C121.187 38 122.134 38.2667 122.934 38.8C123.76 39.3333 124.48 40.1733 125.094 41.32L128.094 46.88C128.414 47.44 128.56 47.9867 128.534 48.52C128.507 49.0533 128.307 49.4933 127.934 49.84C127.56 50.16 127.014 50.32 126.294 50.32C125.574 50.32 124.987 50.1733 124.534 49.88C124.08 49.56 123.68 49.08 123.334 48.44L119.294 41C118.814 40.0933 118.24 39.4933 117.574 39.2C116.934 38.88 116.107 38.72 115.094 38.72H111.294V47.68C111.294 48.5067 111.08 49.16 110.654 49.64C110.227 50.0933 109.587 50.32 108.734 50.32ZM111.294 34.92H117.534C119.374 34.92 120.76 34.5467 121.694 33.8C122.654 33.0267 123.134 31.88 123.134 30.36C123.134 28.8667 122.654 27.7467 121.694 27C120.76 26.2267 119.374 25.84 117.534 25.84H111.294V34.92ZM142.248 50.4C140.034 50.4 138.128 49.9867 136.528 49.16C134.928 48.3333 133.688 47.16 132.808 45.64C131.954 44.12 131.528 42.32 131.528 40.24C131.528 38.2133 131.941 36.44 132.768 34.92C133.621 33.4 134.781 32.2133 136.248 31.36C137.741 30.48 139.434 30.04 141.328 30.04C142.714 30.04 143.954 30.2667 145.048 30.72C146.168 31.1733 147.114 31.8267 147.888 32.68C148.688 33.5333 149.288 34.5733 149.688 35.8C150.114 37 150.328 38.36 150.328 39.88C150.328 40.36 150.154 40.7333 149.808 41C149.488 41.24 149.021 41.36 148.408 41.36H135.568V38.48H146.808L146.168 39.08C146.168 37.8533 145.981 36.8267 145.608 36C145.261 35.1733 144.741 34.5467 144.048 34.12C143.381 33.6667 142.541 33.44 141.528 33.44C140.408 33.44 139.448 33.7067 138.648 34.24C137.874 34.7467 137.274 35.48 136.848 36.44C136.448 37.3733 136.248 38.4933 136.248 39.8V40.08C136.248 42.2667 136.754 43.9067 137.768 45C138.808 46.0667 140.328 46.6 142.328 46.6C143.021 46.6 143.794 46.52 144.648 46.36C145.528 46.1733 146.354 45.8667 147.128 45.44C147.688 45.12 148.181 44.9867 148.608 45.04C149.034 45.0667 149.368 45.2133 149.608 45.48C149.874 45.7467 150.034 46.08 150.088 46.48C150.141 46.8533 150.061 47.24 149.848 47.64C149.661 48.04 149.328 48.3867 148.848 48.68C147.914 49.2667 146.834 49.7067 145.608 50C144.408 50.2667 143.288 50.4 142.248 50.4ZM163.328 50.4C161.274 50.4 159.488 49.9867 157.968 49.16C156.448 48.3067 155.274 47.1067 154.448 45.56C153.621 44.0133 153.208 42.2 153.208 40.12C153.208 38.5467 153.434 37.1467 153.888 35.92C154.368 34.6667 155.048 33.6133 155.928 32.76C156.808 31.88 157.874 31.2133 159.128 30.76C160.381 30.28 161.781 30.04 163.328 30.04C164.208 30.04 165.154 30.16 166.168 30.4C167.208 30.64 168.181 31.04 169.088 31.6C169.514 31.8667 169.794 32.1867 169.928 32.56C170.061 32.9333 170.088 33.32 170.008 33.72C169.928 34.0933 169.754 34.4267 169.488 34.72C169.248 34.9867 168.941 35.16 168.568 35.24C168.194 35.2933 167.781 35.2 167.328 34.96C166.741 34.6133 166.141 34.36 165.528 34.2C164.914 34.0133 164.328 33.92 163.768 33.92C162.888 33.92 162.114 34.0667 161.448 34.36C160.781 34.6267 160.208 35.0267 159.728 35.56C159.274 36.0667 158.928 36.7067 158.688 37.48C158.448 38.2533 158.328 39.1467 158.328 40.16C158.328 42.1333 158.794 43.6933 159.728 44.84C160.688 45.96 162.034 46.52 163.768 46.52C164.328 46.52 164.901 46.44 165.488 46.28C166.101 46.12 166.714 45.8667 167.328 45.52C167.781 45.28 168.181 45.2 168.528 45.28C168.901 45.36 169.208 45.5467 169.448 45.84C169.688 46.1067 169.834 46.44 169.888 46.84C169.941 47.2133 169.888 47.5867 169.728 47.96C169.594 48.3333 169.328 48.64 168.928 48.88C168.048 49.4133 167.114 49.8 166.128 50.04C165.141 50.28 164.208 50.4 163.328 50.4ZM178.427 57.52C177.841 57.52 177.361 57.36 176.987 57.04C176.614 56.7467 176.387 56.3467 176.307 55.84C176.254 55.3333 176.347 54.8 176.587 54.24L179.307 48.2V50.28L172.027 33.44C171.787 32.8533 171.707 32.3067 171.787 31.8C171.867 31.2933 172.107 30.8933 172.507 30.6C172.934 30.28 173.507 30.12 174.227 30.12C174.841 30.12 175.334 30.2667 175.707 30.56C176.081 30.8267 176.414 31.3467 176.707 32.12L182.107 45.6H180.907L186.427 32.08C186.721 31.3333 187.067 30.8267 187.467 30.56C187.867 30.2667 188.401 30.12 189.067 30.12C189.654 30.12 190.121 30.28 190.467 30.6C190.814 30.8933 191.027 31.2933 191.107 31.8C191.187 32.28 191.094 32.8133 190.827 33.4L181.107 55.6C180.761 56.3467 180.387 56.8533 179.987 57.12C179.587 57.3867 179.067 57.52 178.427 57.52ZM203.171 50.4C201.118 50.4 199.331 49.9867 197.811 49.16C196.291 48.3067 195.118 47.1067 194.291 45.56C193.465 44.0133 193.051 42.2 193.051 40.12C193.051 38.5467 193.278 37.1467 193.731 35.92C194.211 34.6667 194.891 33.6133 195.771 32.76C196.651 31.88 197.718 31.2133 198.971 30.76C200.225 30.28 201.625 30.04 203.171 30.04C204.051 30.04 204.998 30.16 206.011 30.4C207.051 30.64 208.025 31.04 208.931 31.6C209.358 31.8667 209.638 32.1867 209.771 32.56C209.905 32.9333 209.931 33.32 209.851 33.72C209.771 34.0933 209.598 34.4267 209.331 34.72C209.091 34.9867 208.785 35.16 208.411 35.24C208.038 35.2933 207.625 35.2 207.171 34.96C206.585 34.6133 205.985 34.36 205.371 34.2C204.758 34.0133 204.171 33.92 203.611 33.92C202.731 33.92 201.958 34.0667 201.291 34.36C200.625 34.6267 200.051 35.0267 199.571 35.56C199.118 36.0667 198.771 36.7067 198.531 37.48C198.291 38.2533 198.171 39.1467 198.171 40.16C198.171 42.1333 198.638 43.6933 199.571 44.84C200.531 45.96 201.878 46.52 203.611 46.52C204.171 46.52 204.745 46.44 205.331 46.28C205.945 46.12 206.558 45.8667 207.171 45.52C207.625 45.28 208.025 45.2 208.371 45.28C208.745 45.36 209.051 45.5467 209.291 45.84C209.531 46.1067 209.678 46.44 209.731 46.84C209.785 47.2133 209.731 47.5867 209.571 47.96C209.438 48.3333 209.171 48.64 208.771 48.88C207.891 49.4133 206.958 49.8 205.971 50.04C204.985 50.28 204.051 50.4 203.171 50.4ZM219.678 50.4C217.465 50.4 215.798 49.7733 214.678 48.52C213.558 47.24 212.998 45.3733 212.998 42.92V24C212.998 23.1733 213.212 22.5467 213.638 22.12C214.065 21.6933 214.678 21.48 215.478 21.48C216.278 21.48 216.892 21.6933 217.318 22.12C217.772 22.5467 217.998 23.1733 217.998 24V42.68C217.998 43.9067 218.252 44.8133 218.758 45.4C219.292 45.9867 220.038 46.28 220.998 46.28C221.212 46.28 221.412 46.28 221.598 46.28C221.785 46.2533 221.972 46.2267 222.158 46.2C222.532 46.1467 222.785 46.2533 222.918 46.52C223.052 46.76 223.118 47.2667 223.118 48.04C223.118 48.7067 222.985 49.2267 222.718 49.6C222.452 49.9733 222.012 50.2 221.398 50.28C221.132 50.3067 220.852 50.3333 220.558 50.36C220.265 50.3867 219.972 50.4 219.678 50.4ZM235.217 50.4C233.003 50.4 231.097 49.9867 229.497 49.16C227.897 48.3333 226.657 47.16 225.777 45.64C224.923 44.12 224.497 42.32 224.497 40.24C224.497 38.2133 224.91 36.44 225.737 34.92C226.59 33.4 227.75 32.2133 229.217 31.36C230.71 30.48 232.403 30.04 234.297 30.04C235.683 30.04 236.923 30.2667 238.017 30.72C239.137 31.1733 240.083 31.8267 240.857 32.68C241.657 33.5333 242.257 34.5733 242.657 35.8C243.083 37 243.297 38.36 243.297 39.88C243.297 40.36 243.123 40.7333 242.777 41C242.457 41.24 241.99 41.36 241.377 41.36H228.537V38.48H239.777L239.137 39.08C239.137 37.8533 238.95 36.8267 238.577 36C238.23 35.1733 237.71 34.5467 237.017 34.12C236.35 33.6667 235.51 33.44 234.497 33.44C233.377 33.44 232.417 33.7067 231.617 34.24C230.843 34.7467 230.243 35.48 229.817 36.44C229.417 37.3733 229.217 38.4933 229.217 39.8V40.08C229.217 42.2667 229.723 43.9067 230.737 45C231.777 46.0667 233.297 46.6 235.297 46.6C235.99 46.6 236.763 46.52 237.617 46.36C238.497 46.1733 239.323 45.8667 240.097 45.44C240.657 45.12 241.15 44.9867 241.577 45.04C242.003 45.0667 242.337 45.2133 242.577 45.48C242.843 45.7467 243.003 46.08 243.057 46.48C243.11 46.8533 243.03 47.24 242.817 47.64C242.63 48.04 242.297 48.3867 241.817 48.68C240.883 49.2667 239.803 49.7067 238.577 50C237.377 50.2667 236.257 50.4 235.217 50.4Z" fill="#F5F8FA"/>
</svg>
